<svg xmlns="http://www.w3.org/2000/svg" width="36" height="86" fill="none"><path fill="#fff" d="m2.704 68.414-.71-.704-1.408 1.42.71.704zM18 85l-.704.71a1 1 0 0 0 1.408 0zm16.704-15.166.71-.705-1.409-1.42-.71.705zM17 84.394a1 1 0 1 0 2 0zM19 1V0h-2v1zM1.296 69.834l16 15.876 1.408-1.42-16-15.876zM18 85l.704.71.002-.002.005-.005.022-.021.082-.082.32-.318 1.19-1.18 4.036-4.005 10.343-10.263-1.408-1.42-10.343 10.263-4.036 4.004-1.51 1.499-.083.082-.021.021-.006.005v.002h-.001zm1-.606V1h-2v83.394z"/></svg>